# xmcd CD database file
#
# Track frame offsets:
#	150
#	11648
#	21785
#	35220
#	46670
#	61780
#	72225
#	85000
#	97223
#	112260
#	124153
#	134865
#
# Disc length: 1961 seconds
#
# Revision: 1
# Processed by: cddbd v1.5.2PL0 Copyright (c) Steve Scherf et al.
# Submitted via: CDex 1.70beta2
#
DISCID=ac07a70c
DTITLE=Connie Smith - pure connie smith
DYEAR=1977
DGENRE=Country
TTITLE0=Coming around
TTITLE1=That's what loving you can do
TTITLE2=Don't treat me like a stranger
TTITLE3=Every move you make (is saying goodbye)
TTITLE4=It please me
TTITLE5=I don't want to be free
TTITLE6=You and love and I
TTITLE7=Lovin' one day at a time
TTITLE8=I just want to be your everything
TTITLE9=All of a sudden
TTITLE10=Too good to be true
TTITLE11=Wayward wind
EXTD=YEAR: 1977
EXTT0=
EXTT1=
EXTT2=
EXTT3=
EXTT4=
EXTT5=
EXTT6=
EXTT7=
EXTT8=
EXTT9=
EXTT10=
EXTT11=
PLAYORDER=
